<?xml version="1.0" standalone="no"?>
<!DOCTYPE svg PUBLIC "-//W3C//DTD SVG 20010904//EN"
 "http://www.w3.org/TR/2001/REC-SVG-20010904/DTD/svg10.dtd">
<svg version="1.0" xmlns="http://www.w3.org/2000/svg"
 width="1024.000000pt" height="1024.000000pt" viewBox="0 0 1024.000000 1024.000000"
 preserveAspectRatio="xMidYMid meet">

<g transform="translate(0.000000,1024.000000) scale(0.100000,-0.100000)"
fill="#000000" stroke="none">
<path d="M4489 7723 l-24 -28 28 24 c25 23 32 31 24 31 -2 0 -14 -12 -28 -27z"/>
<path d="M4333 7623 c-67 -98 -127 -257 -149 -393 -26 -160 -13 -365 32 -505
58 -179 238 -466 486 -777 85 -107 85 -108 3 -122 -56 -10 -221 -64 -275 -91
-58 -29 -83 -58 -83 -95 0 -34 15 -55 64 -86 43 -27 207 -85 318 -114 123 -31
404 -90 430 -90 16 0 41 -18 76 -56 l51 -56 31 38 31 38 84 -12 c47 -7 144
-27 215 -45 130 -33 131 -33 121 -11 -6 12 -20 25 -32 28 -18 5 -19 8 -6 17
11 8 12 12 3 16 -27 10 -11 24 25 23 20 -1 46 -1 57 0 29 3 -143 39 -187 40
-35 0 -37 2 -29 23 7 17 16 22 42 20 l34 -2 -29 12 c-27 12 -28 14 -12 30 10
9 23 17 29 17 29 0 -46 29 -92 35 -28 4 -51 12 -51 18 0 7 46 68 101 137 120
148 167 214 148 208 -7 -2 -21 2 -30 10 -16 14 -16 17 -2 39 34 51 2 17 -88
-94 -52 -65 -100 -124 -107 -132 -21 -22 -165 -201 -212 -264 -23 -32 -46 -56
-51 -55 -4 2 -61 69 -126 149 -65 81 -190 236 -278 345 -356 441 -537 733
-596 962 -54 211 -24 473 80 684 21 42 33 74 26 72 -6 -3 -16 -18 -22 -34 -12
-33 -39 -48 -55 -32 -10 10 20 82 37 85 8 2 18 47 10 47 -2 0 -12 -12 -22 -27z
m501 -1853 c16 -33 15 -37 -7 -16 -11 12 -21 11 -67 -5 -29 -10 -60 -25 -70
-34 -18 -17 -70 -21 -70 -5 0 11 39 33 120 66 71 30 76 30 94 -6z m116 -142
c0 -11 -55 21 -77 44 -9 11 -13 24 -8 35 6 15 12 12 46 -26 21 -24 39 -48 39
-53z m-255 -12 c35 -24 69 -37 128 -50 40 -9 23 -26 -27 -26 -50 0 -154 48
-174 80 -11 18 -10 20 12 20 14 0 41 -11 61 -24z m375 -121 c7 -9 10 -18 7
-21 -8 -8 -97 7 -97 16 0 22 73 26 90 5z m385 -65 c-3 -5 -11 -10 -16 -10 -6
0 -7 5 -4 10 3 6 11 10 16 10 6 0 7 -4 4 -10z m255 -130 c0 -5 -5 -10 -11 -10
-5 0 -7 5 -4 10 3 6 8 10 11 10 2 0 4 -4 4 -10z"/>
<path d="M4720 7548 c-73 -85 -115 -163 -155 -288 -54 -168 -31 -374 63 -555
53 -102 191 -237 297 -292 220 -112 450 -117 670 -13 89 42 130 69 105 70 -9
0 -22 -6 -29 -12 -9 -8 -11 -8 -8 -2 8 14 -20 27 -35 18 -14 -9 -58 16 -58 33
0 7 -7 13 -16 13 -9 0 -32 9 -50 21 -19 11 -39 17 -45 13 -7 -4 -9 -3 -6 3 12
20 -20 48 -56 48 -19 0 -33 -3 -30 -7 2 -5 -3 -8 -11 -8 -10 0 -13 6 -9 17 4
11 3 14 -6 9 -6 -4 -9 -16 -6 -27 5 -15 2 -19 -17 -18 -13 0 -17 3 -10 6 14 5
17 59 3 67 -5 3 -14 -1 -21 -9 -11 -13 -10 -14 4 -9 9 3 16 1 16 -5 0 -14 -37
-15 -45 -1 -3 6 1 13 9 16 9 3 23 21 32 40 18 38 41 47 100 42 31 -2 39 -7 39
-23 1 -52 12 -62 73 -63 l57 0 -45 10 c-49 10 -70 30 -70 65 l0 23 -185 0
-185 0 0 -27 c0 -46 -13 -56 -66 -55 -54 3 -74 15 -74 47 0 13 -13 37 -30 53
l-30 30 0 162 c0 105 -3 159 -10 155 -5 -3 -11 -34 -11 -68 -1 -44 -3 -54 -8
-32 -5 22 -14 32 -40 39 -23 7 -37 19 -46 40 -7 17 -17 34 -21 39 -4 4 -8 21
-9 37 -1 23 1 27 12 19 7 -7 13 -22 13 -36 0 -14 13 -37 29 -54 31 -30 46 -36
56 -19 3 6 -3 10 -14 10 -38 0 -51 26 -51 105 0 82 9 95 67 95 28 0 29 2 24
38 -4 32 -5 34 -10 13 -7 -25 -31 -42 -31 -22 0 7 -10 15 -22 20 -25 9 -40 -6
-45 -44 -13 -94 -17 -99 -51 -60 -25 29 -27 36 -9 31 6 -1 9 -1 5 1 -5 3 -8
11 -8 19 0 8 -4 14 -9 14 -12 0 -22 -29 -15 -43 4 -7 -4 0 -17 14 -25 27 -55
33 -77 16 -11 -8 -12 -5 -6 19 9 40 55 134 66 134 4 0 8 7 8 15 0 9 7 18 15
21 8 4 13 10 10 15 -3 4 4 13 15 19 11 6 20 17 20 25 0 7 12 27 26 44 14 17
22 31 17 31 -4 -1 -24 -19 -43 -42z m-20 -332 c0 -3 -4 -8 -10 -11 -5 -3 -10
-1 -10 4 0 6 5 11 10 11 6 0 10 -2 10 -4z m530 -516 c0 -13 -70 -13 -90 0 -11
7 0 10 38 10 28 0 52 -4 52 -10z m160 -120 c0 -5 -5 -10 -11 -10 -5 0 -7 5 -4
10 3 6 8 10 11 10 2 0 4 -4 4 -10z m116 -58 c9 -14 8 -18 -7 -18 -9 0 -15 4
-12 9 2 4 -1 15 -8 23 -9 12 -9 13 2 9 8 -3 19 -13 25 -23z m-67 -25 c8 -10 7
-14 -4 -14 -8 0 -15 6 -15 14 0 7 2 13 4 13 2 0 9 -6 15 -13z m141 -33 c0 -2
-9 0 -20 6 -11 6 -20 13 -20 16 0 2 9 0 20 -6 11 -6 20 -13 20 -16z m-104 -11
c-3 -8 -2 -11 3 -8 5 3 12 1 16 -5 3 -5 -1 -10 -9 -10 -18 0 -19 -6 -6 -35 5
-11 9 -14 9 -7 1 7 6 10 13 6 8 -5 9 -2 5 9 -3 9 -2 19 2 22 5 2 11 -5 14 -17
7 -25 -7 -38 -40 -38 -27 0 -46 30 -32 51 15 24 9 35 -7 14 -16 -19 -16 -19
-9 5 4 14 12 28 18 32 16 10 29 -2 23 -19z m-29 -89 c-3 -3 -12 -4 -19 -1 -8
3 -5 6 6 6 11 1 17 -2 13 -5z"/>
<path d="M4885 7441 c-8 -17 -12 -31 -8 -31 9 0 35 52 29 58 -3 2 -12 -10 -21
-27z"/>
<path d="M4963 7125 l2 -110 105 -1 c58 -1 95 0 83 3 -13 2 -23 9 -23 14 0 5
-9 9 -21 9 -11 0 -17 -4 -14 -10 3 -5 -1 -10 -9 -10 -21 0 -20 17 2 29 9 6 13
11 7 11 -45 5 -90 34 -79 51 2 4 -5 6 -17 4 -18 -4 -19 -2 -8 11 9 10 9 18 2
22 -5 4 -15 25 -21 47 -9 34 -10 24 -9 -70z m32 -85 c3 -5 1 -10 -4 -10 -6 0
-11 5 -11 10 0 6 2 10 4 10 3 0 8 -4 11 -10z"/>
<path d="M4982 6898 c-39 -39 17 -100 58 -63 24 21 26 45 5 45 -8 0 -15 5 -15
11 0 5 5 7 12 3 7 -4 8 -3 4 4 -9 16 -49 15 -64 0z"/>
<path d="M5150 6889 c0 -5 56 -9 132 -9 72 0 129 2 127 5 -10 9 -259 14 -259
4z"/>
<path d="M5150 6830 c0 -6 48 -10 125 -10 77 0 125 4 125 10 0 6 -48 10 -125
10 -77 0 -125 -4 -125 -10z"/>
<path d="M5831 5008 c-109 -44 -315 -93 -916 -218 -776 -161 -1260 -317 -1540
-498 -89 -57 -205 -173 -234 -234 -49 -103 -44 -217 14 -336 29 -57 59 -96
133 -169 l96 -96 1800 6 c990 4 1801 9 1804 11 2 3 -23 7 -55 11 -32 3 -69 11
-83 16 -14 5 -68 18 -120 28 -113 24 -258 59 -435 106 -419 111 -690 244 -749
369 -20 42 -21 98 -2 134 22 42 103 113 182 160 76 46 334 156 507 217 105 37
118 46 76 52 -13 2 -18 -1 -13 -8 5 -8 2 -9 -12 -1 -11 6 -27 7 -42 1 -24 -9
-69 11 -55 24 3 4 2 7 -4 7 -6 0 -13 9 -16 20 -3 11 -1 18 3 15 5 -3 8 4 7 15
-1 18 -3 19 -25 4 -14 -9 -21 -11 -18 -5 4 6 3 11 -3 11 -18 0 -21 -18 -5 -34
8 -9 11 -16 5 -16 -6 0 -8 -7 -5 -15 4 -8 15 -15 25 -15 10 0 19 -5 19 -11 0
-6 -6 -9 -14 -6 -8 3 -16 1 -19 -6 -2 -6 -12 3 -22 21 -11 18 -26 32 -33 32
-9 0 -2 13 17 35 30 35 31 37 16 66 -9 17 -21 27 -27 23 -7 -5 -8 -3 -4 5 6 9
12 9 25 -3 23 -21 32 -20 24 1 -5 12 -3 14 8 8 8 -4 11 -5 7 0 -4 4 -3 14 3
22 17 20 4 17 -137 -23 -121 -35 -128 -36 -185 -24 -33 7 -58 17 -56 23 1 5
61 24 132 42 132 34 185 51 185 60 0 2 -13 2 -29 -1 -28 -6 -91 13 -91 28 0 3
-10 4 -22 0 -14 -3 -19 -2 -14 6 4 7 2 12 -3 12 -6 0 -21 11 -33 25 -11 13
-25 22 -30 19 -4 -3 -8 2 -8 12 0 13 3 14 14 5 8 -7 17 -8 20 -3 3 6 0 15 -8
21 -18 15 -15 34 9 61 10 11 16 20 14 19 -2 0 -37 -14 -78 -31z m-99 -65 c-9
-16 -62 -26 -62 -12 0 7 44 26 63 28 4 1 4 -7 -1 -16z m128 -163 c-8 -5 -28
-9 -45 -9 -29 1 -29 1 -5 9 14 4 34 8 45 9 16 1 17 -1 5 -9z m148 -82 c20 -20
13 -30 -18 -26 -16 3 -30 1 -30 -3 0 -4 -8 -6 -17 -4 -10 2 -36 7 -58 11 l-40
7 65 12 c36 7 70 13 76 14 5 0 15 -4 22 -11z m92 -22 c0 -3 -4 -8 -10 -11 -5
-3 -10 -1 -10 4 0 6 5 11 10 11 6 0 10 -2 10 -4z m-553 -28 c29 -7 52 -17 50
-21 -1 -5 -79 -31 -172 -58 -94 -27 -208 -62 -255 -78 -81 -28 -88 -29 -154
-18 -37 7 -69 16 -70 22 0 5 19 15 44 23 121 36 486 141 495 141 5 1 33 -5 62
-11z m568 -119 c-4 -5 -12 -9 -18 -8 -9 0 -8 2 1 6 6 2 9 10 6 15 -4 7 -2 8 5
4 6 -4 9 -12 6 -17z m22 -35 c-3 -3 -12 -4 -19 -1 -8 3 -5 6 6 6 11 1 17 -2
13 -5z m-1414 -131 c31 -3 57 -9 57 -14 0 -4 -30 -24 -67 -45 -39 -21 -100
-69 -142 -111 l-73 -73 -84 7 c-47 3 -87 9 -89 13 -3 4 26 37 65 73 82 78 226
168 255 161 11 -3 46 -8 78 -11z m-311 -461 c57 -2 68 -5 73 -22 21 -68 139
-172 283 -252 l77 -42 -33 -7 c-18 -4 -70 -10 -115 -13 l-82 -7 -85 52 c-46
29 -114 82 -150 118 -63 63 -118 150 -106 169 3 5 20 8 38 7 18 -1 63 -2 100
-3z"/>
<path d="M6135 4690 c3 -5 8 -10 11 -10 2 0 4 5 4 10 0 6 -5 10 -11 10 -5 0
-7 -4 -4 -10z"/>
<path d="M2870 2465 l0 -515 28 -1 c125 -5 554 4 589 11 96 22 177 88 204 166
19 57 17 160 -4 216 -23 58 -84 114 -146 132 l-45 13 49 25 c76 37 109 91 113
183 5 89 -9 135 -56 187 -77 85 -141 98 -484 98 l-248 0 0 -515z m505 319 c63
-29 83 -126 38 -176 -37 -41 -67 -48 -199 -48 l-126 0 6 31 c3 17 6 71 6 120
l0 89 121 0 c89 0 130 -4 154 -16z m6 -394 c56 -16 92 -60 97 -122 3 -44 0
-59 -20 -88 -34 -51 -76 -61 -230 -58 l-129 3 -2 138 -2 137 125 0 c69 0 141
-5 161 -10z"/>
<path d="M5955 2970 c-22 -5 -51 -13 -65 -19 -22 -10 -21 -10 10 -5 68 13 79
13 73 -2 -6 -16 5 -18 27 -4 12 8 12 10 1 10 -35 0 6 15 57 21 l57 6 -60 0
c-33 1 -78 -3 -100 -7z"/>
<path d="M5802 2917 c-144 -76 -232 -251 -232 -466 0 -249 116 -428 319 -491
179 -56 383 -20 503 88 39 35 86 117 74 129 -3 4 -6 1 -6 -5 0 -17 -16 -15
-34 4 -9 8 -16 12 -16 7 0 -4 -8 7 -16 25 -9 17 -23 32 -30 32 -8 0 -14 7 -14
15 0 8 -4 15 -9 15 -5 0 -11 8 -13 18 -3 11 -12 0 -26 -33 -43 -95 -105 -135
-217 -143 -91 -6 -158 21 -215 85 -57 65 -75 126 -75 258 0 133 18 193 81 271
24 29 37 51 29 48 -9 -4 -15 0 -15 10 0 9 -4 16 -10 16 -18 0 -11 29 10 40 11
6 17 16 14 25 -5 13 -8 13 -20 0 -15 -14 -35 -11 -68 11 -10 7 -26 10 -35 7
-25 -10 -10 3 39 31 55 32 41 34 -18 3z"/>
<path d="M6260 2936 c0 -2 7 -7 16 -10 8 -3 12 -2 9 4 -6 10 -25 14 -25 6z"/>
<path d="M6088 2810 c29 -6 72 -19 95 -31 l42 -21 -25 24 c-14 14 -29 25 -35
26 -5 0 -37 3 -70 6 l-60 5 53 -9z"/>
<path d="M5978 2803 c7 -3 16 -2 19 1 4 3 -2 6 -13 5 -11 0 -14 -3 -6 -6z"/>
<path d="M4985 2730 c-140 -29 -214 -110 -215 -233 0 -127 71 -188 266 -227
84 -16 156 -40 177 -58 27 -24 19 -80 -16 -106 -23 -17 -43 -21 -102 -21 -82
0 -117 17 -145 71 l-15 29 -99 -3 -98 -3 6 -30 c17 -89 89 -164 183 -195 78
-25 245 -25 325 -1 134 41 203 143 184 272 -9 54 -50 106 -107 135 -20 11
-101 35 -179 54 -79 20 -151 43 -161 52 -11 10 -19 31 -19 51 0 27 6 37 33 53
66 41 183 19 208 -39 l14 -31 97 0 c87 0 98 2 98 18 -1 25 -38 104 -63 130
-66 71 -239 109 -372 82z"/>
<path d="M3863 2713 c-10 -27 4 -579 16 -616 16 -49 73 -112 125 -140 33 -17
58 -21 131 -21 105 0 148 17 215 86 l40 42 0 -57 0 -57 53 -1 c28 0 75 -1 102
-2 l50 -2 0 63 c-1 34 -2 208 -3 387 l-2 325 -105 0 -105 0 0 -242 c0 -215 -3
-248 -19 -284 -34 -75 -129 -106 -215 -70 -61 25 -66 51 -66 339 l0 256 -106
3 c-76 2 -108 0 -111 -9z"/>
<path d="M6300 2661 c0 -8 79 -3 89 5 2 2 -17 4 -42 4 -26 0 -47 -4 -47 -9z"/>
<path d="M6085 2405 l0 -75 103 0 c100 0 133 12 71 25 -18 4 -27 10 -21 14 7
4 -3 14 -23 25 -19 11 -32 23 -29 27 3 5 -3 9 -13 10 -16 0 -16 1 2 9 19 8 19
9 1 9 -11 1 -16 4 -12 9 4 4 85 10 179 13 l172 5 -215 2 -215 2 0 -75z m60
-46 c-29 -11 -35 -10 -35 5 0 9 8 12 27 8 25 -5 25 -6 8 -13z"/>
<path d="M6661 2254 c0 -11 3 -14 6 -6 3 7 2 16 -1 19 -3 4 -6 -2 -5 -13z"/>
<path d="M6670 2214 c0 -27 26 -90 41 -100 8 -4 9 -3 5 5 -5 7 -16 36 -27 64
-10 29 -18 42 -19 31z"/>
</g>
</svg>
